<svg xmlns="http://www.w3.org/2000/svg" height="60" width="60" enable-background="new 0 0 476 429.8" viewBox="0 0 476 429.8" id="return">
    <g>
        <path fill="#EFF3FE" d="M372.8,129.5l-145.2,81.9L82.3,129.5c-1.2,1.7-2.1,3.7-2.3,5.8l144.4,81.4v166.3c2,0.5,4.1,0.5,6.1,0V216.7
		L375,135.3C374.9,133.2,374,131.2,372.8,129.5L372.8,129.5z"></path>
        <path fill="#F4AE3D" d="M227.5,211.4L82.3,129.5c1-1.4,2.3-2.5,3.8-3.3l41.6-24l53.6-31l40-23.1c3.8-2.2,8.5-2.2,12.3,0L369,126.1
		c1.5,0.9,2.8,2,3.8,3.3L227.5,211.4L227.5,211.4z M80,135.3c-0.1,0.5-0.1,1-0.1,1.5V293c0,4.4,2.3,8.5,6.2,10.6l135.3,78.2
		c1,0.5,2,1,3.1,1.2V216.7L80,135.3L80,135.3z M375,135.3l-144.4,81.4v166.3c1.1-0.2,2.1-0.7,3.1-1.2L369,303.7
		c3.8-2.1,6.1-6.2,6.1-10.6V136.8C375.2,136.3,375.2,135.8,375,135.3L375,135.3z"></path>
        <path fill="#5152DF" d="M329,163.1v81.1c0,1.5-1.5,2.4-2.8,1.8l-22.1-10.2l-26.8,37.6c-1.1,1.6-3.6,0.8-3.6-1.2v-78.3
		c0-4.1-2.2-7.9-5.7-9.9l-140.3-81.8l53.6-31l142,82.1C326.9,155.2,329.1,159,329,163.1L329,163.1z"></path>
        <path fill="#5152DF" d="M409.8,328.9c-5.2,8.4-11.1,16.4-17.4,23.9c-1.7,2-4.1,3-6.5,3c-1.9,0-3.8-0.6-5.4-2c-3.6-3-4-8.3-1-11.9
		c5.8-6.9,11.2-14.4,16-22.1c2.5-3.9,7.7-5.1,11.6-2.7C411,319.7,412.2,324.9,409.8,328.9L409.8,328.9z M430,256.8
		c-4.6-1.2-9.1,1.6-10.2,6.1c-2.4,9.8-5.7,19.5-9.6,28.8c-1.8,4.3,0.2,9.2,4.5,11c1.1,0.5,2.2,0.7,3.3,0.7c3.3,0,6.4-1.9,7.8-5.2
		c4.2-10.1,7.7-20.6,10.4-31.3C437.2,262.5,434.5,257.9,430,256.8L430,256.8z M473.5,187.7c-3.3-3.3-8.6-3.3-11.9,0l-19.4,19.4
		C438.1,92.2,343.4,0,227.5,0S12.6,96.4,12.6,214.9s96.4,214.9,214.9,214.9c49.9,0,98.5-17.5,136.9-49.3c3.6-3,4.1-8.3,1.1-11.9
		c-3-3.6-8.3-4.1-11.9-1.1c-35.4,29.3-80.2,45.4-126.2,45.4c-109.2,0-198.1-88.8-198.1-198.1s88.9-198,198.1-198
		S421.2,101.4,425.4,207l-19.1-19.1c-3.3-3.3-8.6-3.3-11.9,0s-3.3,8.6,0,11.9l33.5,33.6c1.6,1.6,3.8,2.5,6,2.5s4.3-0.8,6-2.5
		l33.7-33.7C476.8,196.4,476.8,191,473.5,187.7L473.5,187.7z"></path>
        <circle cx="71.6" cy="320.2" r="71.6" fill="#FC6142"></circle>
        <path fill="#EFF3FE" d="M85.7,320.2l22.1-22.1c3.3-3.3,3.3-8.6,0-11.9l-2.1-2.1c-3.3-3.3-8.6-3.3-11.9,0l-22.1,22.1l-22.1-22.1
		c-3.3-3.3-8.6-3.3-11.9,0l-2.1,2.1c-3.3,3.3-3.3,8.6,0,11.9l22.1,22.1l-22.1,22.1c-3.3,3.3-3.3,8.6,0,11.9l2.1,2.1
		c3.3,3.3,8.6,3.3,11.9,0l22.1-22.1l22.1,22.1c3.3,3.3,8.6,3.3,11.9,0l2.1-2.1c3.3-3.3,3.3-8.6,0-11.9
		C107.8,342.4,85.7,320.2,85.7,320.2z"></path>
    </g>
</svg>