<?xml version="1.0" encoding="UTF-8" standalone="no"?> <svg width="64" height="64" viewBox="0 0 64 58" fill="none" xmlns="http://www.w3.org/2000/svg">
    <path d="M35 3H7C4.79086 3 3 4.79086 3 7V57C3 59.2091 4.79086 61 7 61H35C37.2091 61 39 59.2091 39 57V7C39 4.79086 37.2091 3 35 3Z" fill="#5AAAE7"/>
    <path d="M61 43.01H53C52.7348 43.01 52.4804 42.9047 52.2929 42.7171C52.1054 42.5296 52 42.2752 52 42.01L52.01 39.01C52.01 38.7448 52.1154 38.4904 52.3029 38.3029C52.4904 38.1154 52.7448 38.01 53.01 38.01H55.38L61 43.01Z" fill="#E6E7E8"/>
    <path d="M53 47.01C53.7911 47.012 54.5639 47.2485 55.2206 47.6897C55.8773 48.1308 56.3884 48.7568 56.6893 49.4885C56.9902 50.2201 57.0674 51.0246 56.9112 51.8001C56.7549 52.5757 56.3721 53.2874 55.8113 53.8455C55.2505 54.4035 54.5368 54.7826 53.7605 54.935C52.9842 55.0874 52.1802 55.0062 51.45 54.7016C50.7199 54.3971 50.0965 53.8828 49.6586 53.2239C49.2207 52.565 48.988 51.7911 48.99 51C48.9892 50.4741 49.0925 49.9532 49.294 49.4675C49.4955 48.9817 49.7911 48.5407 50.1639 48.1697C50.5367 47.7988 50.9793 47.5054 51.466 47.3063C51.9528 47.1073 52.4741 47.0065 53 47.01Z" fill="#57565C"/>
    <path d="M39 46.99C38.4747 46.9893 37.9544 47.0921 37.4689 47.2926C36.9833 47.493 36.542 47.7871 36.1701 48.158C35.419 48.9072 34.9963 49.9241 34.995 50.985C34.9937 52.0459 35.4138 53.0638 36.163 53.8149C36.9122 54.566 37.9291 54.9887 38.99 54.99H39C40.0609 54.99 41.0783 54.5686 41.8284 53.8184C42.5786 53.0683 43 52.0509 43 50.99C43 49.9291 42.5786 48.9117 41.8284 48.1616C41.0783 47.4114 40.0609 46.99 39 46.99Z" fill="#57565C"/>
    <path d="M53 43.01C52.7348 43.01 52.4804 42.9047 52.2929 42.7171C52.1054 42.5296 52 42.2752 52 42.01L52.01 39.01C52.01 38.7448 52.1154 38.4904 52.3029 38.3029C52.4904 38.1154 52.7448 38.01 53.01 38.01H55.38L52.01 35.01H48V43H31V48.99C31 49.5187 31.2093 50.0259 31.5822 50.4007C31.9552 50.7755 32.4613 50.9874 32.99 50.99H34.99C34.9907 50.4647 35.0948 49.9447 35.2964 49.4597C35.498 48.9746 35.7932 48.534 36.1651 48.163C36.537 47.7921 36.9783 47.498 37.4639 47.2976C37.9494 47.0972 38.4697 46.9944 38.995 46.995C39.5203 46.9957 40.0403 47.0998 40.5254 47.3014C41.0104 47.503 41.451 47.7982 41.822 48.1701C42.1929 48.542 42.487 48.9833 42.6874 49.4689C42.8878 49.9545 42.9907 50.4747 42.99 51H48.99C48.9907 50.4747 49.0948 49.9547 49.2964 49.4697C49.498 48.9846 49.7932 48.544 50.1651 48.173C50.537 47.8021 50.9783 47.508 51.4639 47.3076C51.9494 47.1072 52.4697 47.0044 52.995 47.005C53.5203 47.0057 54.0403 47.1098 54.5254 47.3114C55.0104 47.513 55.451 47.8082 55.822 48.1801C56.1929 48.552 56.487 48.9933 56.6874 49.4789C56.8878 49.9645 56.9907 50.4847 56.99 51.01H58.99C59.521 51.009 60.0302 50.7982 60.4066 50.4237C60.783 50.0491 60.9963 49.541 61 49.01V43.01H53Z" fill="#9D2235FF"/>
    <path d="M29 3V6C29 6.26522 28.8946 6.51957 28.7071 6.70711C28.5196 6.89464 28.2652 7 28 7H14C13.7348 7 13.4804 6.89464 13.2929 6.70711C13.1054 6.51957 13 6.26522 13 6V3H29Z" fill="#9D2235FF"/>
    <path d="M25 24C25.0021 25.7038 24.4596 27.3636 23.4517 28.7372C22.4437 30.1108 21.0232 31.1264 19.3973 31.6356C17.7714 32.1448 16.0253 32.121 14.4139 31.5677C12.8025 31.0144 11.4101 29.9606 10.44 28.56C11.7739 29.5012 13.3675 30.0044 15 30C17.1217 30 19.1566 29.1571 20.6569 27.6569C22.1571 26.1566 23 24.1217 23 22C23.0044 20.3675 22.5012 18.7739 21.56 17.44C22.6229 18.172 23.4916 19.1518 24.0909 20.2948C24.6903 21.4377 25.0023 22.7094 25 24V24Z" fill="#3D9AE2"/>
    <path d="M15 30C19.4183 30 23 26.4183 23 22C23 17.5817 19.4183 14 15 14C10.5817 14 7 17.5817 7 22C7 26.4183 10.5817 30 15 30Z" fill="#9D2235FF"/>
    <path d="M36 31H31V35H36V31Z" fill="#B42235FF"/>
    <path d="M45 31H40V35H45V31Z" fill="#B42235FF"/>
    <path d="M31 35V43H39H45V35H31Z" fill="#9D2235FF"/>
    <path d="M45 31H43C42.9963 32.3635 42.7595 33.7163 42.3 35H45V31Z" fill="#CC7400"/>
    <path d="M42.3 35C41.4749 37.3382 39.9451 39.3631 37.9214 40.7958C35.8977 42.2286 33.4795 42.9986 31 43H45V35H42.3Z" fill="#B42235FF"/>
    <path d="M39 31H36V35V37L38 35L39 36L40 37V35V31H39Z" fill="#E6E7E8"/>
    <path d="M53.995 50.006H51.995V52.006H53.995V50.006Z" fill="#3E3D42"/>
    <path d="M39.995 49.994H37.995V51.994H39.995V49.994Z" fill="#3E3D42"/>
    <path d="M28 50H20V52H28V50Z" fill="#96C8EF"/>
    <path d="M18 50H16V52H18V50Z" fill="#96C8EF"/>
    <path d="M28 46H22V48H28V46Z" fill="#96C8EF"/>
    <path d="M28 42H24V44H28V42Z" fill="#96C8EF"/>
    <path d="M20 46H18V48H20V46Z" fill="#96C8EF"/>
    <path d="M15 31C13.22 31 11.4799 30.4722 9.99987 29.4832C8.51983 28.4943 7.36628 27.0887 6.68509 25.4442C6.0039 23.7996 5.82567 21.99 6.17294 20.2442C6.5202 18.4984 7.37737 16.8947 8.63604 15.636C9.89472 14.3774 11.4984 13.5202 13.2442 13.1729C14.99 12.8257 16.7996 13.0039 18.4442 13.6851C20.0887 14.3663 21.4943 15.5198 22.4832 16.9999C23.4722 18.4799 24 20.22 24 22C23.9971 24.3861 23.0479 26.6736 21.3608 28.3608C19.6736 30.0479 17.3861 30.9971 15 31V31ZM15 15C13.6155 15 12.2622 15.4105 11.111 16.1797C9.95987 16.9489 9.06266 18.0421 8.53285 19.3212C8.00303 20.6003 7.86441 22.0078 8.13451 23.3656C8.4046 24.7235 9.07129 25.9708 10.0503 26.9498C11.0292 27.9287 12.2765 28.5954 13.6344 28.8655C14.9922 29.1356 16.3997 28.997 17.6788 28.4672C18.9579 27.9373 20.0511 27.0401 20.8203 25.889C21.5895 24.7379 22 23.3845 22 22C21.9979 20.1441 21.2597 18.3649 19.9474 17.0526C18.6351 15.7403 16.8559 15.0021 15 15V15Z" fill="#9D2235FF"/>
    <path d="M14 25C13.7348 24.9999 13.4805 24.8945 13.293 24.707L10.293 21.707L11.707 20.293L14 22.586L18.293 18.293L19.707 19.707L14.707 24.707C14.5195 24.8945 14.2652 24.9999 14 25Z" fill="#FFD422"/>
    <path d="M28 17H26V19H28V17Z" fill="#1E81CE"/>
    <path d="M34 17H30V19H34V17Z" fill="#1E81CE"/>
    <path d="M34 21H26V23H34V21Z" fill="#1E81CE"/>
</svg>
