<svg xmlns="http://www.w3.org/2000/svg" viewBox="2 0 64 64" id="price-tag">
    <path fill="#faa307" d="M22.678 59.824 4.219 41.364a4.016 4.016 0 0 1 0-5.679L23.407 16.5a4.019 4.019 0 0 1 2.811-1.177l18.694-.135a4.016 4.016 0 0 1 4.045 4.065l-.227 18.583a4.008 4.008 0 0 1-1.176 2.791l-19.2 19.2a4.017 4.017 0 0 1-5.676-.003Z"></path>
    <path fill="#ffd100" d="M59.863 27.168 46.932 13.919a4 4 0 0 0-5.711-.014l-13.07 13.26A4 4 0 0 0 27 29.973V57a4 4 0 0 0 4 4h26a4 4 0 0 0 4-4V29.962a4 4 0 0 0-1.137-2.794ZM44 33a5 5 0 1 1 5-5 5 5 0 0 1-5 5Z"></path>
    <path fill="#212529" d="M44 3a13.255 13.255 0 0 0-13.21 12.29l3.01-.03a10.249 10.249 0 0 1 20.45.99 10.266 10.266 0 0 1-5.36 9c-.18.1-.36.19-.54.28a10.239 10.239 0 0 1-8.7 0A5.026 5.026 0 0 0 39 28a4.578 4.578 0 0 0 .03.53 13.025 13.025 0 0 0 4.97.97 13.181 13.181 0 0 0 4.84-.91c.04-.02.09-.03.13-.05A13.254 13.254 0 0 0 44 3Z"></path>
    <circle cx="38" cy="40" r="3" fill="#fff"></circle>
    <circle cx="50" cy="52" r="3" fill="#fff"></circle>
    <path fill="#fff" d="M36.5 53.5a2.109 2.109 0 0 1 .009-2.991l12.077-11.923a2 2 0 0 1 2.828 2.828L39.491 53.491a2.109 2.109 0 0 1-2.991.009Z"></path>
    <g fill="#1e120b">
        <path d="M21.971 60.531a4.966 4.966 0 0 0 6.281.639A4.966 4.966 0 0 0 31 62h26a5.006 5.006 0 0 0 5-5V29.962a4.974 4.974 0 0 0-1.421-3.492l-3.838-3.933a13.868 13.868 0 0 0 1.509-6.293 14.24 14.24 0 0 0-28.35-1.95l-3.693.026a4.988 4.988 0 0 0-3.507 1.47L3.512 34.978a5.02 5.02 0 0 0 0 7.093Zm37.176-32.665a2.986 2.986 0 0 1 .853 2.1V57a3 3 0 0 1-3 3H31a3 3 0 0 1-3-3V29.973a2.98 2.98 0 0 1 .864-2.105s9.836-9.911 13.069-13.261a3.034 3.034 0 0 1 4.283.01c1.455 1.523 5.885 6.029 5.885 6.029a9.443 9.443 0 0 1-3.462 3.563A6 6 0 1 0 44 34a5.959 5.959 0 0 0 5.85-4.8 14.137 14.137 0 0 0 5.835-4.883ZM39.5 14.224l-4.526.033A9.2 9.2 0 0 1 44 7a9.305 9.305 0 0 1 9.25 9.256 8.693 8.693 0 0 1-.328 2.369s-3.97-4.039-5.274-5.4a5.059 5.059 0 0 0-7.14-.018c-.249.254-1.008 1.017-1.008 1.017Zm7.225 10.86a9.047 9.047 0 0 1-5.442 0 3.964 3.964 0 0 1 5.442 0Zm-6.133 4.986a13.775 13.775 0 0 0 6.822-.007 3.976 3.976 0 0 1-6.822.007ZM44 4a12.2 12.2 0 0 1 8.626 20.884 12.159 12.159 0 0 1-12.614 2.934 3.959 3.959 0 0 1 .171-1A11.3 11.3 0 0 0 55.25 16.244 11.31 11.31 0 0 0 44 5a11.194 11.194 0 0 0-11.067 9.272l-1.015.007A12.287 12.287 0 0 1 44 4ZM4.926 36.392 24.114 17.2a3 3 0 0 1 2.112-.884l11.29-.081-10.077 10.228A4.972 4.972 0 0 0 26 29.973V57a4.958 4.958 0 0 0 .8 2.692 2.983 2.983 0 0 1-3.415-.575L4.926 40.657a3.019 3.019 0 0 1 0-4.265Z"></path>
        <path d="M38 44a4 4 0 1 0-4-4 4 4 0 0 0 4 4zm0-6a2 2 0 1 1-2 2 2 2 0 0 1 2-2zm12 10a4 4 0 1 0 4 4 4 4 0 0 0-4-4zm0 6a2 2 0 1 1 2-2 2 2 0 0 1-2 2zm3-14a2.983 2.983 0 0 0-.878-2.121 3.076 3.076 0 0 0-4.239 0S38.855 46.847 35.806 49.8a3.109 3.109 0 1 0 4.4 4.4c2.948-3.048 8.924-9.069 11.918-12.072A2.988 2.988 0 0 0 53 40zm-2.3.711c-3.028 2.973-8.975 9.026-11.923 12.077a1.109 1.109 0 1 1-1.569-1.568c3.051-2.951 9.107-8.9 12.082-11.928a1 1 0 1 1 1.41 1.419z"></path>
    </g>
</svg>